# Wavefront OBJ file automatically generated by Tiled2Unity

# Vertices (Count = 225)
v 0 -1 0
v -1 -1 0
v -1 0 0
v 0 0 0
v -2 -1 0
v -2 0 0
v -3 -1 0
v -3 0 0
v -4 -1 0
v -4 0 0
v -5 -1 0
v -5 0 0
v -6 -1 0
v -6 0 0
v -7 -1 0
v -7 0 0
v -8 -1 0
v -8 0 0
v -9 -1 0
v -9 0 0
v -10 -1 0
v -10 0 0
v -11 -1 0
v -11 0 0
v -12 -1 0
v -12 0 0
v -13 -1 0
v -13 0 0
v -14 -1 0
v -14 0 0
v 0 -2 0
v -1 -2 0
v -2 -2 0
v -3 -2 0
v -4 -2 0
v -5 -2 0
v -6 -2 0
v -7 -2 0
v -8 -2 0
v -9 -2 0
v -10 -2 0
v -11 -2 0
v -12 -2 0
v -13 -2 0
v -14 -2 0
v 0 -3 0
v -1 -3 0
v -2 -3 0
v -3 -3 0
v -4 -3 0
v -5 -3 0
v -6 -3 0
v -7 -3 0
v -8 -3 0
v -9 -3 0
v -10 -3 0
v -11 -3 0
v -12 -3 0
v -13 -3 0
v -14 -3 0
v 0 -4 0
v -1 -4 0
v -2 -4 0
v -3 -4 0
v -4 -4 0
v -5 -4 0
v -6 -4 0
v -7 -4 0
v -8 -4 0
v -9 -4 0
v -10 -4 0
v -11 -4 0
v -12 -4 0
v -13 -4 0
v -14 -4 0
v 0 -5 0
v -1 -5 0
v -2 -5 0
v -3 -5 0
v -4 -5 0
v -5 -5 0
v -6 -5 0
v -7 -5 0
v -8 -5 0
v -9 -5 0
v -10 -5 0
v -11 -5 0
v -12 -5 0
v -13 -5 0
v -14 -5 0
v 0 -6 0
v -1 -6 0
v -2 -6 0
v -3 -6 0
v -4 -6 0
v -5 -6 0
v -6 -6 0
v -7 -6 0
v -8 -6 0
v -9 -6 0
v -10 -6 0
v -11 -6 0
v -12 -6 0
v -13 -6 0
v -14 -6 0
v 0 -7 0
v -1 -7 0
v -2 -7 0
v -3 -7 0
v -4 -7 0
v -5 -7 0
v -6 -7 0
v -7 -7 0
v -8 -7 0
v -9 -7 0
v -10 -7 0
v -11 -7 0
v -12 -7 0
v -13 -7 0
v -14 -7 0
v 0 -8 0
v -1 -8 0
v -2 -8 0
v -3 -8 0
v -4 -8 0
v -5 -8 0
v -6 -8 0
v -7 -8 0
v -8 -8 0
v -9 -8 0
v -10 -8 0
v -11 -8 0
v -12 -8 0
v -13 -8 0
v -14 -8 0
v 0 -9 0
v -1 -9 0
v -2 -9 0
v -3 -9 0
v -4 -9 0
v -5 -9 0
v -6 -9 0
v -7 -9 0
v -8 -9 0
v -9 -9 0
v -10 -9 0
v -11 -9 0
v -12 -9 0
v -13 -9 0
v -14 -9 0
v 0 -10 0
v -1 -10 0
v -2 -10 0
v -3 -10 0
v -4 -10 0
v -5 -10 0
v -6 -10 0
v -7 -10 0
v -8 -10 0
v -9 -10 0
v -10 -10 0
v -11 -10 0
v -12 -10 0
v -13 -10 0
v -14 -10 0
v 0 -11 0
v -1 -11 0
v -2 -11 0
v -3 -11 0
v -4 -11 0
v -5 -11 0
v -6 -11 0
v -7 -11 0
v -8 -11 0
v -9 -11 0
v -10 -11 0
v -11 -11 0
v -12 -11 0
v -13 -11 0
v -14 -11 0
v 0 -12 0
v -1 -12 0
v -2 -12 0
v -3 -12 0
v -4 -12 0
v -5 -12 0
v -6 -12 0
v -7 -12 0
v -8 -12 0
v -9 -12 0
v -10 -12 0
v -11 -12 0
v -12 -12 0
v -13 -12 0
v -14 -12 0
v 0 -13 0
v -1 -13 0
v -2 -13 0
v -3 -13 0
v -4 -13 0
v -5 -13 0
v -6 -13 0
v -7 -13 0
v -8 -13 0
v -9 -13 0
v -10 -13 0
v -11 -13 0
v -12 -13 0
v -13 -13 0
v -14 -13 0
v 0 -14 0
v -1 -14 0
v -2 -14 0
v -3 -14 0
v -4 -14 0
v -5 -14 0
v -6 -14 0
v -7 -14 0
v -8 -14 0
v -9 -14 0
v -10 -14 0
v -11 -14 0
v -12 -14 0
v -13 -14 0
v -14 -14 0

# Texture cooridinates (Count = 80)
vt 0.3750153 0.8750153
vt 0.4999847 0.8750153
vt 0.4999847 0.9999847
vt 0.3750153 0.9999847
vt 0.5000153 0.8750153
vt 0.6249847 0.8750153
vt 0.6249847 0.9999847
vt 0.5000153 0.9999847
vt 0.6250153 0.8750153
vt 0.7499847 0.8750153
vt 0.7499847 0.9999847
vt 0.6250153 0.9999847
vt 0.3750153 0.7500153
vt 0.4999847 0.7500153
vt 0.4999847 0.8749847
vt 0.3750153 0.8749847
vt 0.5000153 0.7500153
vt 0.6249847 0.7500153
vt 0.6249847 0.8749847
vt 0.5000153 0.8749847
vt 0.1250153 0.3750153
vt 0.2499847 0.3750153
vt 0.2499847 0.4999847
vt 0.1250153 0.4999847
vt 0.6250153 0.7500153
vt 0.7499847 0.7500153
vt 0.7499847 0.8749847
vt 0.6250153 0.8749847
vt 0.3750153 0.6250153
vt 0.4999847 0.6250153
vt 0.4999847 0.7499847
vt 0.3750153 0.7499847
vt 0.5000153 0.6250153
vt 0.6249847 0.6250153
vt 0.6249847 0.7499847
vt 0.5000153 0.7499847
vt 0.6250153 0.6250153
vt 0.7499847 0.6250153
vt 0.7499847 0.7499847
vt 0.6250153 0.7499847
vt 0.6250153 0.2500153
vt 0.7499847 0.2500153
vt 0.7499847 0.3749847
vt 0.6250153 0.3749847
vt 0.7500153 0.2500153
vt 0.8749847 0.2500153
vt 0.8749847 0.3749847
vt 0.7500153 0.3749847
vt 0.8750153 0.2500153
vt 0.9999847 0.2500153
vt 0.9999847 0.3749847
vt 0.8750153 0.3749847
vt 0.6250153 0.1250153
vt 0.7499847 0.1250153
vt 0.7499847 0.2499847
vt 0.6250153 0.2499847
vt 0.7500153 0.1250153
vt 0.8749847 0.1250153
vt 0.8749847 0.2499847
vt 0.7500153 0.2499847
vt 0.8750153 0.1250153
vt 0.9999847 0.1250153
vt 0.9999847 0.2499847
vt 0.8750153 0.2499847
vt 0.6250153 1.525879E-05
vt 0.7499847 1.525879E-05
vt 0.7499847 0.1249847
vt 0.6250153 0.1249847
vt 0.7500153 1.525879E-05
vt 0.8749847 1.525879E-05
vt 0.8749847 0.1249847
vt 0.7500153 0.1249847
vt 0.8750153 1.525879E-05
vt 0.9999847 1.525879E-05
vt 0.9999847 0.1249847
vt 0.8750153 0.1249847
vt 0.1250153 0.7500153
vt 0.2499847 0.7500153
vt 0.2499847 0.8749847
vt 0.1250153 0.8749847

# Normal
vn 0 0 -1

# Groups (Count = 3)

g mesh_0001
f 1/1/1 2/2/1 3/3/1 4/4/1
f 2/5/1 5/6/1 6/7/1 3/8/1
f 5/5/1 7/6/1 8/7/1 6/8/1
f 7/5/1 9/6/1 10/7/1 8/8/1
f 9/5/1 11/6/1 12/7/1 10/8/1
f 11/5/1 13/6/1 14/7/1 12/8/1
f 13/5/1 15/6/1 16/7/1 14/8/1
f 15/5/1 17/6/1 18/7/1 16/8/1
f 17/5/1 19/6/1 20/7/1 18/8/1
f 19/5/1 21/6/1 22/7/1 20/8/1
f 21/5/1 23/6/1 24/7/1 22/8/1
f 23/5/1 25/6/1 26/7/1 24/8/1
f 25/5/1 27/6/1 28/7/1 26/8/1
f 27/9/1 29/10/1 30/11/1 28/12/1
f 31/13/1 32/14/1 2/15/1 1/16/1
f 32/17/1 33/18/1 5/19/1 2/20/1
f 33/17/1 34/18/1 7/19/1 5/20/1
f 34/17/1 35/18/1 9/19/1 7/20/1
f 35/17/1 36/18/1 11/19/1 9/20/1
f 36/17/1 37/18/1 13/19/1 11/20/1
f 37/17/1 38/18/1 15/19/1 13/20/1
f 38/17/1 39/18/1 17/19/1 15/20/1
f 39/17/1 40/18/1 19/19/1 17/20/1
f 40/17/1 41/18/1 21/19/1 19/20/1
f 41/21/1 42/22/1 23/23/1 21/24/1
f 42/17/1 43/18/1 25/19/1 23/20/1
f 43/17/1 44/18/1 27/19/1 25/20/1
f 44/25/1 45/26/1 29/27/1 27/28/1
f 46/13/1 47/14/1 32/15/1 31/16/1
f 47/17/1 48/18/1 33/19/1 32/20/1
f 48/17/1 49/18/1 34/19/1 33/20/1
f 49/17/1 50/18/1 35/19/1 34/20/1
f 50/17/1 51/18/1 36/19/1 35/20/1
f 51/17/1 52/18/1 37/19/1 36/20/1
f 52/17/1 53/18/1 38/19/1 37/20/1
f 53/17/1 54/18/1 39/19/1 38/20/1
f 54/17/1 55/18/1 40/19/1 39/20/1
f 55/17/1 56/18/1 41/19/1 40/20/1
f 56/17/1 57/18/1 42/19/1 41/20/1
f 57/17/1 58/18/1 43/19/1 42/20/1
f 58/17/1 59/18/1 44/19/1 43/20/1
f 59/25/1 60/26/1 45/27/1 44/28/1
f 61/13/1 62/14/1 47/15/1 46/16/1
f 62/17/1 63/18/1 48/19/1 47/20/1
f 63/17/1 64/18/1 49/19/1 48/20/1
f 64/17/1 65/18/1 50/19/1 49/20/1
f 65/17/1 66/18/1 51/19/1 50/20/1
f 66/17/1 67/18/1 52/19/1 51/20/1
f 67/17/1 68/18/1 53/19/1 52/20/1
f 68/17/1 69/18/1 54/19/1 53/20/1
f 69/21/1 70/22/1 55/23/1 54/24/1
f 70/17/1 71/18/1 56/19/1 55/20/1
f 71/17/1 72/18/1 57/19/1 56/20/1
f 72/17/1 73/18/1 58/19/1 57/20/1
f 73/17/1 74/18/1 59/19/1 58/20/1
f 74/25/1 75/26/1 60/27/1 59/28/1
f 76/13/1 77/14/1 62/15/1 61/16/1
f 77/17/1 78/18/1 63/19/1 62/20/1
f 78/17/1 79/18/1 64/19/1 63/20/1
f 79/17/1 80/18/1 65/19/1 64/20/1
f 80/17/1 81/18/1 66/19/1 65/20/1
f 81/17/1 82/18/1 67/19/1 66/20/1
f 82/17/1 83/18/1 68/19/1 67/20/1
f 83/17/1 84/18/1 69/19/1 68/20/1
f 84/21/1 85/22/1 70/23/1 69/24/1
f 85/17/1 86/18/1 71/19/1 70/20/1
f 86/17/1 87/18/1 72/19/1 71/20/1
f 87/17/1 88/18/1 73/19/1 72/20/1
f 88/17/1 89/18/1 74/19/1 73/20/1
f 89/25/1 90/26/1 75/27/1 74/28/1
f 91/13/1 92/14/1 77/15/1 76/16/1
f 92/17/1 93/18/1 78/19/1 77/20/1
f 93/17/1 94/18/1 79/19/1 78/20/1
f 94/17/1 95/18/1 80/19/1 79/20/1
f 95/21/1 96/22/1 81/23/1 80/24/1
f 96/17/1 97/18/1 82/19/1 81/20/1
f 97/17/1 98/18/1 83/19/1 82/20/1
f 98/17/1 99/18/1 84/19/1 83/20/1
f 99/17/1 100/18/1 85/19/1 84/20/1
f 100/17/1 101/18/1 86/19/1 85/20/1
f 101/17/1 102/18/1 87/19/1 86/20/1
f 102/17/1 103/18/1 88/19/1 87/20/1
f 103/17/1 104/18/1 89/19/1 88/20/1
f 104/25/1 105/26/1 90/27/1 89/28/1
f 106/13/1 107/14/1 92/15/1 91/16/1
f 107/17/1 108/18/1 93/19/1 92/20/1
f 108/21/1 109/22/1 94/23/1 93/24/1
f 109/17/1 110/18/1 95/19/1 94/20/1
f 110/17/1 111/18/1 96/19/1 95/20/1
f 111/17/1 112/18/1 97/19/1 96/20/1
f 112/21/1 113/22/1 98/23/1 97/24/1
f 113/17/1 114/18/1 99/19/1 98/20/1
f 114/17/1 115/18/1 100/19/1 99/20/1
f 115/17/1 116/18/1 101/19/1 100/20/1
f 116/17/1 117/18/1 102/19/1 101/20/1
f 117/17/1 118/18/1 103/19/1 102/20/1
f 118/17/1 119/18/1 104/19/1 103/20/1
f 119/25/1 120/26/1 105/27/1 104/28/1
f 121/13/1 122/14/1 107/15/1 106/16/1
f 122/17/1 123/18/1 108/19/1 107/20/1
f 123/17/1 124/18/1 109/19/1 108/20/1
f 124/17/1 125/18/1 110/19/1 109/20/1
f 125/17/1 126/18/1 111/19/1 110/20/1
f 126/17/1 127/18/1 112/19/1 111/20/1
f 127/17/1 128/18/1 113/19/1 112/20/1
f 128/17/1 129/18/1 114/19/1 113/20/1
f 129/17/1 130/18/1 115/19/1 114/20/1
f 130/17/1 131/18/1 116/19/1 115/20/1
f 131/17/1 132/18/1 117/19/1 116/20/1
f 132/17/1 133/18/1 118/19/1 117/20/1
f 133/17/1 134/18/1 119/19/1 118/20/1
f 134/25/1 135/26/1 120/27/1 119/28/1
f 136/13/1 137/14/1 122/15/1 121/16/1
f 137/17/1 138/18/1 123/19/1 122/20/1
f 138/17/1 139/18/1 124/19/1 123/20/1
f 139/17/1 140/18/1 125/19/1 124/20/1
f 140/17/1 141/18/1 126/19/1 125/20/1
f 141/17/1 142/18/1 127/19/1 126/20/1
f 142/17/1 143/18/1 128/19/1 127/20/1
f 143/17/1 144/18/1 129/19/1 128/20/1
f 144/17/1 145/18/1 130/19/1 129/20/1
f 145/17/1 146/18/1 131/19/1 130/20/1
f 146/17/1 147/18/1 132/19/1 131/20/1
f 147/17/1 148/18/1 133/19/1 132/20/1
f 148/17/1 149/18/1 134/19/1 133/20/1
f 149/25/1 150/26/1 135/27/1 134/28/1
f 151/13/1 152/14/1 137/15/1 136/16/1
f 152/17/1 153/18/1 138/19/1 137/20/1
f 153/17/1 154/18/1 139/19/1 138/20/1
f 154/17/1 155/18/1 140/19/1 139/20/1
f 155/17/1 156/18/1 141/19/1 140/20/1
f 156/21/1 157/22/1 142/23/1 141/24/1
f 157/17/1 158/18/1 143/19/1 142/20/1
f 158/17/1 159/18/1 144/19/1 143/20/1
f 159/17/1 160/18/1 145/19/1 144/20/1
f 160/17/1 161/18/1 146/19/1 145/20/1
f 161/21/1 162/22/1 147/23/1 146/24/1
f 162/17/1 163/18/1 148/19/1 147/20/1
f 163/17/1 164/18/1 149/19/1 148/20/1
f 164/25/1 165/26/1 150/27/1 149/28/1
f 166/13/1 167/14/1 152/15/1 151/16/1
f 167/17/1 168/18/1 153/19/1 152/20/1
f 168/17/1 169/18/1 154/19/1 153/20/1
f 169/17/1 170/18/1 155/19/1 154/20/1
f 170/17/1 171/18/1 156/19/1 155/20/1
f 171/17/1 172/18/1 157/19/1 156/20/1
f 172/17/1 173/18/1 158/19/1 157/20/1
f 173/17/1 174/18/1 159/19/1 158/20/1
f 174/17/1 175/18/1 160/19/1 159/20/1
f 175/17/1 176/18/1 161/19/1 160/20/1
f 176/17/1 177/18/1 162/19/1 161/20/1
f 177/17/1 178/18/1 163/19/1 162/20/1
f 178/17/1 179/18/1 164/19/1 163/20/1
f 179/25/1 180/26/1 165/27/1 164/28/1
f 181/13/1 182/14/1 167/15/1 166/16/1
f 182/17/1 183/18/1 168/19/1 167/20/1
f 183/17/1 184/18/1 169/19/1 168/20/1
f 184/17/1 185/18/1 170/19/1 169/20/1
f 185/21/1 186/22/1 171/23/1 170/24/1
f 186/17/1 187/18/1 172/19/1 171/20/1
f 187/17/1 188/18/1 173/19/1 172/20/1
f 188/17/1 189/18/1 174/19/1 173/20/1
f 189/17/1 190/18/1 175/19/1 174/20/1
f 190/17/1 191/18/1 176/19/1 175/20/1
f 191/17/1 192/18/1 177/19/1 176/20/1
f 192/17/1 193/18/1 178/19/1 177/20/1
f 193/17/1 194/18/1 179/19/1 178/20/1
f 194/25/1 195/26/1 180/27/1 179/28/1
f 196/13/1 197/14/1 182/15/1 181/16/1
f 197/17/1 198/18/1 183/19/1 182/20/1
f 198/17/1 199/18/1 184/19/1 183/20/1
f 199/17/1 200/18/1 185/19/1 184/20/1
f 200/17/1 201/18/1 186/19/1 185/20/1
f 201/17/1 202/18/1 187/19/1 186/20/1
f 202/17/1 203/18/1 188/19/1 187/20/1
f 203/17/1 204/18/1 189/19/1 188/20/1
f 204/17/1 205/18/1 190/19/1 189/20/1
f 205/17/1 206/18/1 191/19/1 190/20/1
f 206/21/1 207/22/1 192/23/1 191/24/1
f 207/17/1 208/18/1 193/19/1 192/20/1
f 208/17/1 209/18/1 194/19/1 193/20/1
f 209/25/1 210/26/1 195/27/1 194/28/1
f 211/29/1 212/30/1 197/31/1 196/32/1
f 212/33/1 213/34/1 198/35/1 197/36/1
f 213/33/1 214/34/1 199/35/1 198/36/1
f 214/33/1 215/34/1 200/35/1 199/36/1
f 215/33/1 216/34/1 201/35/1 200/36/1
f 216/33/1 217/34/1 202/35/1 201/36/1
f 217/33/1 218/34/1 203/35/1 202/36/1
f 218/33/1 219/34/1 204/35/1 203/36/1
f 219/33/1 220/34/1 205/35/1 204/36/1
f 220/33/1 221/34/1 206/35/1 205/36/1
f 221/33/1 222/34/1 207/35/1 206/36/1
f 222/33/1 223/34/1 208/35/1 207/36/1
f 223/33/1 224/34/1 209/35/1 208/36/1
f 224/37/1 225/38/1 210/39/1 209/40/1

g mesh_0002
f 32/41/1 33/42/1 5/43/1 2/44/1
f 33/45/1 34/46/1 7/47/1 5/48/1
f 34/49/1 35/50/1 9/51/1 7/52/1
f 35/41/1 36/42/1 11/43/1 9/44/1
f 36/45/1 37/46/1 13/47/1 11/48/1
f 37/49/1 38/50/1 15/51/1 13/52/1
f 38/41/1 39/42/1 17/43/1 15/44/1
f 39/45/1 40/46/1 19/47/1 17/48/1
f 40/49/1 41/50/1 21/51/1 19/52/1
f 41/41/1 42/42/1 23/43/1 21/44/1
f 42/45/1 43/46/1 25/47/1 23/48/1
f 43/49/1 44/50/1 27/51/1 25/52/1
f 47/53/1 48/54/1 33/55/1 32/56/1
f 48/57/1 49/58/1 34/59/1 33/60/1
f 49/61/1 50/62/1 35/63/1 34/64/1
f 50/53/1 51/54/1 36/55/1 35/56/1
f 51/57/1 52/58/1 37/59/1 36/60/1
f 52/61/1 53/62/1 38/63/1 37/64/1
f 53/53/1 54/54/1 39/55/1 38/56/1
f 54/57/1 55/58/1 40/59/1 39/60/1
f 55/61/1 56/62/1 41/63/1 40/64/1
f 56/53/1 57/54/1 42/55/1 41/56/1
f 57/57/1 58/58/1 43/59/1 42/60/1
f 58/61/1 59/62/1 44/63/1 43/64/1
f 62/65/1 63/66/1 48/67/1 47/68/1
f 63/69/1 64/70/1 49/71/1 48/72/1
f 64/73/1 65/74/1 50/75/1 49/76/1
f 65/65/1 66/66/1 51/67/1 50/68/1
f 66/69/1 67/70/1 52/71/1 51/72/1
f 67/73/1 68/74/1 53/75/1 52/76/1
f 68/65/1 69/66/1 54/67/1 53/68/1
f 69/69/1 70/70/1 55/71/1 54/72/1
f 70/73/1 71/74/1 56/75/1 55/76/1
f 71/65/1 72/66/1 57/67/1 56/68/1
f 72/69/1 73/70/1 58/71/1 57/72/1
f 73/73/1 74/74/1 59/75/1 58/76/1
f 77/41/1 78/42/1 63/43/1 62/44/1
f 78/45/1 79/46/1 64/47/1 63/48/1
f 79/49/1 80/50/1 65/51/1 64/52/1
f 86/41/1 87/42/1 72/43/1 71/44/1
f 87/45/1 88/46/1 73/47/1 72/48/1
f 88/49/1 89/50/1 74/51/1 73/52/1
f 92/53/1 93/54/1 78/55/1 77/56/1
f 93/57/1 94/58/1 79/59/1 78/60/1
f 94/61/1 95/62/1 80/63/1 79/64/1
f 101/53/1 102/54/1 87/55/1 86/56/1
f 102/57/1 103/58/1 88/59/1 87/60/1
f 103/61/1 104/62/1 89/63/1 88/64/1
f 107/65/1 108/66/1 93/67/1 92/68/1
f 108/69/1 109/70/1 94/71/1 93/72/1
f 109/73/1 110/74/1 95/75/1 94/76/1
f 116/65/1 117/66/1 102/67/1 101/68/1
f 117/69/1 118/70/1 103/71/1 102/72/1
f 118/73/1 119/74/1 104/75/1 103/76/1
f 122/41/1 123/42/1 108/43/1 107/44/1
f 123/45/1 124/46/1 109/47/1 108/48/1
f 124/49/1 125/50/1 110/51/1 109/52/1
f 131/41/1 132/42/1 117/43/1 116/44/1
f 132/45/1 133/46/1 118/47/1 117/48/1
f 133/49/1 134/50/1 119/51/1 118/52/1
f 137/53/1 138/54/1 123/55/1 122/56/1
f 138/57/1 139/58/1 124/59/1 123/60/1
f 139/61/1 140/62/1 125/63/1 124/64/1
f 146/53/1 147/54/1 132/55/1 131/56/1
f 147/57/1 148/58/1 133/59/1 132/60/1
f 148/61/1 149/62/1 134/63/1 133/64/1
f 152/65/1 153/66/1 138/67/1 137/68/1
f 153/69/1 154/70/1 139/71/1 138/72/1
f 154/73/1 155/74/1 140/75/1 139/76/1
f 161/65/1 162/66/1 147/67/1 146/68/1
f 162/69/1 163/70/1 148/71/1 147/72/1
f 163/73/1 164/74/1 149/75/1 148/76/1
f 167/41/1 168/42/1 153/43/1 152/44/1
f 168/45/1 169/46/1 154/47/1 153/48/1
f 169/49/1 170/50/1 155/51/1 154/52/1
f 170/41/1 171/42/1 156/43/1 155/44/1
f 171/45/1 172/46/1 157/47/1 156/48/1
f 172/49/1 173/50/1 158/51/1 157/52/1
f 173/41/1 174/42/1 159/43/1 158/44/1
f 174/45/1 175/46/1 160/47/1 159/48/1
f 175/49/1 176/50/1 161/51/1 160/52/1
f 176/41/1 177/42/1 162/43/1 161/44/1
f 177/45/1 178/46/1 163/47/1 162/48/1
f 178/49/1 179/50/1 164/51/1 163/52/1
f 182/53/1 183/54/1 168/55/1 167/56/1
f 183/57/1 184/58/1 169/59/1 168/60/1
f 184/61/1 185/62/1 170/63/1 169/64/1
f 185/53/1 186/54/1 171/55/1 170/56/1
f 186/57/1 187/58/1 172/59/1 171/60/1
f 187/61/1 188/62/1 173/63/1 172/64/1
f 188/53/1 189/54/1 174/55/1 173/56/1
f 189/57/1 190/58/1 175/59/1 174/60/1
f 190/61/1 191/62/1 176/63/1 175/64/1
f 191/53/1 192/54/1 177/55/1 176/56/1
f 192/57/1 193/58/1 178/59/1 177/60/1
f 193/61/1 194/62/1 179/63/1 178/64/1
f 197/65/1 198/66/1 183/67/1 182/68/1
f 198/69/1 199/70/1 184/71/1 183/72/1
f 199/73/1 200/74/1 185/75/1 184/76/1
f 200/65/1 201/66/1 186/67/1 185/68/1
f 201/69/1 202/70/1 187/71/1 186/72/1
f 202/73/1 203/74/1 188/75/1 187/76/1
f 203/65/1 204/66/1 189/67/1 188/68/1
f 204/69/1 205/70/1 190/71/1 189/72/1
f 205/73/1 206/74/1 191/75/1 190/76/1
f 206/65/1 207/66/1 192/67/1 191/68/1
f 207/69/1 208/70/1 193/71/1 192/72/1
f 208/73/1 209/74/1 194/75/1 193/76/1

g mesh_0003
f 32/77/1 33/78/1 5/79/1 2/80/1
f 33/77/1 34/78/1 7/79/1 5/80/1
f 34/77/1 35/78/1 9/79/1 7/80/1
f 35/77/1 36/78/1 11/79/1 9/80/1
f 36/77/1 37/78/1 13/79/1 11/80/1
f 37/77/1 38/78/1 15/79/1 13/80/1
f 38/77/1 39/78/1 17/79/1 15/80/1
f 39/77/1 40/78/1 19/79/1 17/80/1
f 40/77/1 41/78/1 21/79/1 19/80/1
f 41/77/1 42/78/1 23/79/1 21/80/1
f 42/77/1 43/78/1 25/79/1 23/80/1
f 43/77/1 44/78/1 27/79/1 25/80/1
f 47/77/1 48/78/1 33/79/1 32/80/1
f 48/77/1 49/78/1 34/79/1 33/80/1
f 49/77/1 50/78/1 35/79/1 34/80/1
f 50/77/1 51/78/1 36/79/1 35/80/1
f 51/77/1 52/78/1 37/79/1 36/80/1
f 52/77/1 53/78/1 38/79/1 37/80/1
f 53/77/1 54/78/1 39/79/1 38/80/1
f 54/77/1 55/78/1 40/79/1 39/80/1
f 55/77/1 56/78/1 41/79/1 40/80/1
f 56/77/1 57/78/1 42/79/1 41/80/1
f 57/77/1 58/78/1 43/79/1 42/80/1
f 58/77/1 59/78/1 44/79/1 43/80/1
f 62/77/1 63/78/1 48/79/1 47/80/1
f 63/77/1 64/78/1 49/79/1 48/80/1
f 64/77/1 65/78/1 50/79/1 49/80/1
f 65/77/1 66/78/1 51/79/1 50/80/1
f 66/77/1 67/78/1 52/79/1 51/80/1
f 67/77/1 68/78/1 53/79/1 52/80/1
f 68/77/1 69/78/1 54/79/1 53/80/1
f 69/77/1 70/78/1 55/79/1 54/80/1
f 70/77/1 71/78/1 56/79/1 55/80/1
f 71/77/1 72/78/1 57/79/1 56/80/1
f 72/77/1 73/78/1 58/79/1 57/80/1
f 73/77/1 74/78/1 59/79/1 58/80/1
f 77/77/1 78/78/1 63/79/1 62/80/1
f 78/77/1 79/78/1 64/79/1 63/80/1
f 79/77/1 80/78/1 65/79/1 64/80/1
f 86/77/1 87/78/1 72/79/1 71/80/1
f 87/77/1 88/78/1 73/79/1 72/80/1
f 88/77/1 89/78/1 74/79/1 73/80/1
f 92/77/1 93/78/1 78/79/1 77/80/1
f 93/77/1 94/78/1 79/79/1 78/80/1
f 94/77/1 95/78/1 80/79/1 79/80/1
f 101/77/1 102/78/1 87/79/1 86/80/1
f 102/77/1 103/78/1 88/79/1 87/80/1
f 103/77/1 104/78/1 89/79/1 88/80/1
f 107/77/1 108/78/1 93/79/1 92/80/1
f 108/77/1 109/78/1 94/79/1 93/80/1
f 109/77/1 110/78/1 95/79/1 94/80/1
f 116/77/1 117/78/1 102/79/1 101/80/1
f 117/77/1 118/78/1 103/79/1 102/80/1
f 118/77/1 119/78/1 104/79/1 103/80/1
f 122/77/1 123/78/1 108/79/1 107/80/1
f 123/77/1 124/78/1 109/79/1 108/80/1
f 124/77/1 125/78/1 110/79/1 109/80/1
f 131/77/1 132/78/1 117/79/1 116/80/1
f 132/77/1 133/78/1 118/79/1 117/80/1
f 133/77/1 134/78/1 119/79/1 118/80/1
f 137/77/1 138/78/1 123/79/1 122/80/1
f 138/77/1 139/78/1 124/79/1 123/80/1
f 139/77/1 140/78/1 125/79/1 124/80/1
f 146/77/1 147/78/1 132/79/1 131/80/1
f 147/77/1 148/78/1 133/79/1 132/80/1
f 148/77/1 149/78/1 134/79/1 133/80/1
f 152/77/1 153/78/1 138/79/1 137/80/1
f 153/77/1 154/78/1 139/79/1 138/80/1
f 154/77/1 155/78/1 140/79/1 139/80/1
f 161/77/1 162/78/1 147/79/1 146/80/1
f 162/77/1 163/78/1 148/79/1 147/80/1
f 163/77/1 164/78/1 149/79/1 148/80/1
f 167/77/1 168/78/1 153/79/1 152/80/1
f 168/77/1 169/78/1 154/79/1 153/80/1
f 169/77/1 170/78/1 155/79/1 154/80/1
f 170/77/1 171/78/1 156/79/1 155/80/1
f 171/77/1 172/78/1 157/79/1 156/80/1
f 172/77/1 173/78/1 158/79/1 157/80/1
f 173/77/1 174/78/1 159/79/1 158/80/1
f 174/77/1 175/78/1 160/79/1 159/80/1
f 175/77/1 176/78/1 161/79/1 160/80/1
f 176/77/1 177/78/1 162/79/1 161/80/1
f 177/77/1 178/78/1 163/79/1 162/80/1
f 178/77/1 179/78/1 164/79/1 163/80/1
f 182/77/1 183/78/1 168/79/1 167/80/1
f 183/77/1 184/78/1 169/79/1 168/80/1
f 184/77/1 185/78/1 170/79/1 169/80/1
f 185/77/1 186/78/1 171/79/1 170/80/1
f 186/77/1 187/78/1 172/79/1 171/80/1
f 187/77/1 188/78/1 173/79/1 172/80/1
f 188/77/1 189/78/1 174/79/1 173/80/1
f 189/77/1 190/78/1 175/79/1 174/80/1
f 190/77/1 191/78/1 176/79/1 175/80/1
f 191/77/1 192/78/1 177/79/1 176/80/1
f 192/77/1 193/78/1 178/79/1 177/80/1
f 193/77/1 194/78/1 179/79/1 178/80/1
f 197/77/1 198/78/1 183/79/1 182/80/1
f 198/77/1 199/78/1 184/79/1 183/80/1
f 199/77/1 200/78/1 185/79/1 184/80/1
f 200/77/1 201/78/1 186/79/1 185/80/1
f 201/77/1 202/78/1 187/79/1 186/80/1
f 202/77/1 203/78/1 188/79/1 187/80/1
f 203/77/1 204/78/1 189/79/1 188/80/1
f 204/77/1 205/78/1 190/79/1 189/80/1
f 205/77/1 206/78/1 191/79/1 190/80/1
f 206/77/1 207/78/1 192/79/1 191/80/1
f 207/77/1 208/78/1 193/79/1 192/80/1
f 208/77/1 209/78/1 194/79/1 193/80/1

