# Wavefront OBJ file automatically generated by Tiled2Unity

# Vertices (Count = 169)
v -3.2 -4.8 0
v -4.8 -4.8 0
v -4.8 -3.2 0
v -3.2 -3.2 0
v -6.4 -4.8 0
v -6.4 -3.2 0
v -8 -4.8 0
v -8 -3.2 0
v -9.6 -4.8 0
v -9.6 -3.2 0
v -11.2 -4.8 0
v -11.2 -3.2 0
v -12.8 -4.8 0
v -12.8 -3.2 0
v -14.4 -4.8 0
v -14.4 -3.2 0
v -16 -4.8 0
v -16 -3.2 0
v -3.2 -6.4 0
v -4.8 -6.4 0
v -6.4 -6.4 0
v -8 -6.4 0
v -9.6 -6.4 0
v -11.2 -6.4 0
v -12.8 -6.4 0
v -14.4 -6.4 0
v -16 -6.4 0
v -3.2 -8 0
v -4.8 -8 0
v -6.4 -8 0
v -8 -8 0
v -9.6 -8 0
v -11.2 -8 0
v -12.8 -8 0
v -14.4 -8 0
v -16 -8 0
v -3.2 -9.6 0
v -4.8 -9.6 0
v -6.4 -9.6 0
v -8 -9.6 0
v -9.6 -9.6 0
v -11.2 -9.6 0
v -12.8 -9.6 0
v -14.4 -9.6 0
v -16 -9.6 0
v -3.2 -11.2 0
v -4.8 -11.2 0
v -6.4 -11.2 0
v -8 -11.2 0
v -9.6 -11.2 0
v -11.2 -11.2 0
v -12.8 -11.2 0
v -14.4 -11.2 0
v -16 -11.2 0
v -3.2 -12.8 0
v -4.8 -12.8 0
v -6.4 -12.8 0
v -8 -12.8 0
v -9.6 -12.8 0
v -11.2 -12.8 0
v -12.8 -12.8 0
v -14.4 -12.8 0
v -16 -12.8 0
v -3.2 -14.4 0
v -4.8 -14.4 0
v -6.4 -14.4 0
v -8 -14.4 0
v -9.6 -14.4 0
v -11.2 -14.4 0
v -12.8 -14.4 0
v -14.4 -14.4 0
v -16 -14.4 0
v -3.2 -16 0
v -4.8 -16 0
v -6.4 -16 0
v -8 -16 0
v -9.6 -16 0
v -11.2 -16 0
v -12.8 -16 0
v -14.4 -16 0
v -16 -16 0
v -3.2 -17.6 0
v -4.8 -17.6 0
v -6.4 -17.6 0
v -8 -17.6 0
v -9.6 -17.6 0
v -11.2 -17.6 0
v -12.8 -17.6 0
v -14.4 -17.6 0
v -16 -17.6 0
v 0 -1.6 0
v -1.6 -1.6 0
v -1.6 0 0
v 0 0 0
v -3.2 -1.6 0
v -3.2 0 0
v -4.8 -1.6 0
v -4.8 0 0
v -6.4 -1.6 0
v -6.4 0 0
v -8 -1.6 0
v -8 0 0
v -9.6 -1.6 0
v -9.6 0 0
v -11.2 -1.6 0
v -11.2 0 0
v -12.8 -1.6 0
v -12.8 0 0
v -14.4 -1.6 0
v -14.4 0 0
v -16 -1.6 0
v -16 0 0
v -17.6 -1.6 0
v -17.6 0 0
v -19.2 -1.6 0
v -19.2 0 0
v 0 -3.2 0
v -1.6 -3.2 0
v -17.6 -3.2 0
v -19.2 -3.2 0
v 0 -4.8 0
v -1.6 -4.8 0
v -17.6 -4.8 0
v -19.2 -4.8 0
v 0 -6.4 0
v -1.6 -6.4 0
v -17.6 -6.4 0
v -19.2 -6.4 0
v 0 -8 0
v -1.6 -8 0
v -17.6 -8 0
v -19.2 -8 0
v 0 -9.6 0
v -1.6 -9.6 0
v -17.6 -9.6 0
v -19.2 -9.6 0
v 0 -11.2 0
v -1.6 -11.2 0
v -17.6 -11.2 0
v -19.2 -11.2 0
v 0 -12.8 0
v -1.6 -12.8 0
v -17.6 -12.8 0
v -19.2 -12.8 0
v 0 -14.4 0
v -1.6 -14.4 0
v -17.6 -14.4 0
v -19.2 -14.4 0
v 0 -16 0
v -1.6 -16 0
v -17.6 -16 0
v -19.2 -16 0
v 0 -17.6 0
v -1.6 -17.6 0
v -17.6 -17.6 0
v -19.2 -17.6 0
v 0 -19.2 0
v -1.6 -19.2 0
v -3.2 -19.2 0
v -4.8 -19.2 0
v -6.4 -19.2 0
v -8 -19.2 0
v -9.6 -19.2 0
v -11.2 -19.2 0
v -12.8 -19.2 0
v -14.4 -19.2 0
v -16 -19.2 0
v -17.6 -19.2 0
v -19.2 -19.2 0

# Texture cooridinates (Count = 96)
vt 0.7187538 0.8125038
vt 0.7499962 0.8125038
vt 0.7499962 0.8437462
vt 0.7187538 0.8437462
vt 0.6562538 0.8125038
vt 0.6874962 0.8125038
vt 0.6874962 0.8437462
vt 0.6562538 0.8437462
vt 0.6875038 0.8125038
vt 0.7187462 0.8125038
vt 0.7187462 0.8437462
vt 0.6875038 0.8437462
vt 0.6250038 0.8125038
vt 0.6562462 0.8125038
vt 0.6562462 0.8437462
vt 0.6250038 0.8437462
vt 0.5937538 0.8125038
vt 0.6249962 0.8125038
vt 0.6249962 0.8437462
vt 0.5937538 0.8437462
vt 0.5625038 0.8125038
vt 0.5937462 0.8125038
vt 0.5937462 0.8437462
vt 0.5625038 0.8437462
vt 0.5937538 0.8750038
vt 0.6249962 0.8750038
vt 0.6249962 0.9062462
vt 0.5937538 0.9062462
vt 0.5937538 0.9687538
vt 0.6249962 0.9687538
vt 0.6249962 0.9999962
vt 0.5937538 0.9999962
vt 0.5937538 0.8437538
vt 0.6249962 0.8437538
vt 0.6249962 0.8749962
vt 0.5937538 0.8749962
vt 0.6250038 0.9687538
vt 0.6562462 0.9687538
vt 0.6562462 0.9999962
vt 0.6250038 0.9999962
vt 0.6250038 0.8750038
vt 0.6562462 0.8750038
vt 0.6562462 0.9062462
vt 0.6250038 0.9062462
vt 0.5625038 0.8750038
vt 0.5937462 0.8750038
vt 0.5937462 0.9062462
vt 0.5625038 0.9062462
vt 0.5937538 0.9375038
vt 0.6249962 0.9375038
vt 0.6249962 0.9687462
vt 0.5937538 0.9687462
vt 0.5937538 0.9062538
vt 0.6249962 0.9062538
vt 0.6249962 0.9374962
vt 0.5937538 0.9374962
vt 0.6250038 0.9375038
vt 0.6562462 0.9375038
vt 0.6562462 0.9687462
vt 0.6250038 0.9687462
vt 0.7500038 0.5000038
vt 0.7812462 0.5000038
vt 0.7812462 0.5312462
vt 0.7500038 0.5312462
vt 0.7812538 0.5000038
vt 0.8124962 0.5000038
vt 0.8124962 0.5312462
vt 0.7812538 0.5312462
vt 0.8125038 0.5000038
vt 0.8437462 0.5000038
vt 0.8437462 0.5312462
vt 0.8125038 0.5312462
vt 0.7500038 0.4687538
vt 0.7812462 0.4687538
vt 0.7812462 0.4999962
vt 0.7500038 0.4999962
vt 0.7812538 0.4687538
vt 0.8124962 0.4687538
vt 0.8124962 0.4999962
vt 0.7812538 0.4999962
vt 0.8125038 0.4687538
vt 0.8437462 0.4687538
vt 0.8437462 0.4999962
vt 0.8125038 0.4999962
vt 0.7500038 0.4375038
vt 0.7812462 0.4375038
vt 0.7812462 0.4687462
vt 0.7500038 0.4687462
vt 0.7812538 0.4375038
vt 0.8124962 0.4375038
vt 0.8124962 0.4687462
vt 0.7812538 0.4687462
vt 0.8125038 0.4375038
vt 0.8437462 0.4375038
vt 0.8437462 0.4687462
vt 0.8125038 0.4687462

# Normal
vn 0 0 -1

# Groups (Count = 3)

g mesh_0001
f 1/1/1 2/2/1 3/3/1 4/4/1
f 2/5/1 5/6/1 6/7/1 3/8/1
f 5/9/1 7/10/1 8/11/1 6/12/1
f 7/5/1 9/6/1 10/7/1 8/8/1
f 9/1/1 11/2/1 12/3/1 10/4/1
f 11/5/1 13/6/1 14/7/1 12/8/1
f 13/5/1 15/6/1 16/7/1 14/8/1
f 15/5/1 17/6/1 18/7/1 16/8/1
f 19/5/1 20/6/1 2/7/1 1/8/1
f 20/1/1 21/2/1 5/3/1 2/4/1
f 21/1/1 22/2/1 7/3/1 5/4/1
f 22/1/1 23/2/1 9/3/1 7/4/1
f 23/9/1 24/10/1 11/11/1 9/12/1
f 24/9/1 25/10/1 13/11/1 11/12/1
f 25/5/1 26/6/1 15/7/1 13/8/1
f 26/9/1 27/10/1 17/11/1 15/12/1
f 28/5/1 29/6/1 20/7/1 19/8/1
f 29/5/1 30/6/1 21/7/1 20/8/1
f 30/9/1 31/10/1 22/11/1 21/12/1
f 31/1/1 32/2/1 23/3/1 22/4/1
f 32/5/1 33/6/1 24/7/1 23/8/1
f 33/1/1 34/2/1 25/3/1 24/4/1
f 34/5/1 35/6/1 26/7/1 25/8/1
f 35/5/1 36/6/1 27/7/1 26/8/1
f 37/1/1 38/2/1 29/3/1 28/4/1
f 38/9/1 39/10/1 30/11/1 29/12/1
f 39/5/1 40/6/1 31/7/1 30/8/1
f 40/1/1 41/2/1 32/3/1 31/4/1
f 41/5/1 42/6/1 33/7/1 32/8/1
f 42/1/1 43/2/1 34/3/1 33/4/1
f 43/5/1 44/6/1 35/7/1 34/8/1
f 44/5/1 45/6/1 36/7/1 35/8/1
f 46/1/1 47/2/1 38/3/1 37/4/1
f 47/9/1 48/10/1 39/11/1 38/12/1
f 48/5/1 49/6/1 40/7/1 39/8/1
f 49/5/1 50/6/1 41/7/1 40/8/1
f 50/1/1 51/2/1 42/3/1 41/4/1
f 51/9/1 52/10/1 43/11/1 42/12/1
f 52/5/1 53/6/1 44/7/1 43/8/1
f 53/9/1 54/10/1 45/11/1 44/12/1
f 55/9/1 56/10/1 47/11/1 46/12/1
f 56/5/1 57/6/1 48/7/1 47/8/1
f 57/1/1 58/2/1 49/3/1 48/4/1
f 58/1/1 59/2/1 50/3/1 49/4/1
f 59/9/1 60/10/1 51/11/1 50/12/1
f 60/9/1 61/10/1 52/11/1 51/12/1
f 61/9/1 62/10/1 53/11/1 52/12/1
f 62/5/1 63/6/1 54/7/1 53/8/1
f 64/9/1 65/10/1 56/11/1 55/12/1
f 65/9/1 66/10/1 57/11/1 56/12/1
f 66/9/1 67/10/1 58/11/1 57/12/1
f 67/9/1 68/10/1 59/11/1 58/12/1
f 68/9/1 69/10/1 60/11/1 59/12/1
f 69/1/1 70/2/1 61/3/1 60/4/1
f 70/1/1 71/2/1 62/3/1 61/4/1
f 71/5/1 72/6/1 63/7/1 62/8/1
f 73/5/1 74/6/1 65/7/1 64/8/1
f 74/5/1 75/6/1 66/7/1 65/8/1
f 75/5/1 76/6/1 67/7/1 66/8/1
f 76/5/1 77/6/1 68/7/1 67/8/1
f 77/9/1 78/10/1 69/11/1 68/12/1
f 78/9/1 79/10/1 70/11/1 69/12/1
f 79/1/1 80/2/1 71/3/1 70/4/1
f 80/1/1 81/2/1 72/3/1 71/4/1
f 82/1/1 83/2/1 74/3/1 73/4/1
f 83/9/1 84/10/1 75/11/1 74/12/1
f 84/9/1 85/10/1 76/11/1 75/12/1
f 85/9/1 86/10/1 77/11/1 76/12/1
f 86/5/1 87/6/1 78/7/1 77/8/1
f 87/5/1 88/6/1 79/7/1 78/8/1
f 88/1/1 89/2/1 80/3/1 79/4/1
f 89/9/1 90/10/1 81/11/1 80/12/1

g mesh_0002
f 91/13/1 92/14/1 93/15/1 94/16/1
f 92/17/1 95/18/1 96/19/1 93/20/1
f 95/17/1 97/18/1 98/19/1 96/20/1
f 97/17/1 99/18/1 100/19/1 98/20/1
f 99/21/1 101/22/1 102/23/1 100/24/1
f 101/25/1 103/26/1 104/27/1 102/28/1
f 103/25/1 105/26/1 106/27/1 104/28/1
f 105/21/1 107/22/1 108/23/1 106/24/1
f 107/17/1 109/18/1 110/19/1 108/20/1
f 109/13/1 111/14/1 112/15/1 110/16/1
f 111/25/1 113/26/1 114/27/1 112/28/1
f 113/25/1 115/26/1 116/27/1 114/28/1
f 117/21/1 118/22/1 92/23/1 91/24/1
f 118/13/1 4/14/1 95/15/1 92/16/1
f 4/21/1 3/22/1 97/23/1 95/24/1
f 3/13/1 6/14/1 99/15/1 97/16/1
f 6/25/1 8/26/1 101/27/1 99/28/1
f 8/25/1 10/26/1 103/27/1 101/28/1
f 10/13/1 12/14/1 105/15/1 103/16/1
f 12/25/1 14/26/1 107/27/1 105/28/1
f 14/21/1 16/22/1 109/23/1 107/24/1
f 16/21/1 18/22/1 111/23/1 109/24/1
f 18/17/1 119/18/1 113/19/1 111/20/1
f 119/25/1 120/26/1 115/27/1 113/28/1
f 121/17/1 122/18/1 118/19/1 117/20/1
f 122/17/1 1/18/1 4/19/1 118/20/1
f 1/29/1 2/30/1 3/31/1 4/32/1
f 2/33/1 5/34/1 6/35/1 3/36/1
f 5/33/1 7/34/1 8/35/1 6/36/1
f 7/33/1 9/34/1 10/35/1 8/36/1
f 9/33/1 11/34/1 12/35/1 10/36/1
f 11/33/1 13/34/1 14/35/1 12/36/1
f 13/33/1 15/34/1 16/35/1 14/36/1
f 15/37/1 17/38/1 18/39/1 16/40/1
f 17/17/1 123/18/1 119/19/1 18/20/1
f 123/25/1 124/26/1 120/27/1 119/28/1
f 125/13/1 126/14/1 122/15/1 121/16/1
f 126/25/1 19/26/1 1/27/1 122/28/1
f 19/41/1 20/42/1 2/43/1 1/44/1
f 26/45/1 27/46/1 17/47/1 15/48/1
f 27/25/1 127/26/1 123/27/1 17/28/1
f 127/25/1 128/26/1 124/27/1 123/28/1
f 129/21/1 130/22/1 126/23/1 125/24/1
f 130/25/1 28/26/1 19/27/1 126/28/1
f 28/41/1 29/42/1 20/43/1 19/44/1
f 35/45/1 36/46/1 27/47/1 26/48/1
f 36/21/1 131/22/1 127/23/1 27/24/1
f 131/17/1 132/18/1 128/19/1 127/20/1
f 133/13/1 134/14/1 130/15/1 129/16/1
f 134/21/1 37/22/1 28/23/1 130/24/1
f 37/41/1 38/42/1 29/43/1 28/44/1
f 44/45/1 45/46/1 36/47/1 35/48/1
f 45/17/1 135/18/1 131/19/1 36/20/1
f 135/17/1 136/18/1 132/19/1 131/20/1
f 137/13/1 138/14/1 134/15/1 133/16/1
f 138/13/1 46/14/1 37/15/1 134/16/1
f 46/41/1 47/42/1 38/43/1 37/44/1
f 53/45/1 54/46/1 45/47/1 44/48/1
f 54/21/1 139/22/1 135/23/1 45/24/1
f 139/25/1 140/26/1 136/27/1 135/28/1
f 141/13/1 142/14/1 138/15/1 137/16/1
f 142/17/1 55/18/1 46/19/1 138/20/1
f 55/41/1 56/42/1 47/43/1 46/44/1
f 62/45/1 63/46/1 54/47/1 53/48/1
f 63/25/1 143/26/1 139/27/1 54/28/1
f 143/17/1 144/18/1 140/19/1 139/20/1
f 145/13/1 146/14/1 142/15/1 141/16/1
f 146/13/1 64/14/1 55/15/1 142/16/1
f 64/41/1 65/42/1 56/43/1 55/44/1
f 71/45/1 72/46/1 63/47/1 62/48/1
f 72/25/1 147/26/1 143/27/1 63/28/1
f 147/17/1 148/18/1 144/19/1 143/20/1
f 149/17/1 150/18/1 146/19/1 145/20/1
f 150/17/1 73/18/1 64/19/1 146/20/1
f 73/41/1 74/42/1 65/43/1 64/44/1
f 80/45/1 81/46/1 72/47/1 71/48/1
f 81/17/1 151/18/1 147/19/1 72/20/1
f 151/17/1 152/18/1 148/19/1 147/20/1
f 153/13/1 154/14/1 150/15/1 149/16/1
f 154/13/1 82/14/1 73/15/1 150/16/1
f 82/49/1 83/50/1 74/51/1 73/52/1
f 83/53/1 84/54/1 75/55/1 74/56/1
f 84/53/1 85/54/1 76/55/1 75/56/1
f 85/53/1 86/54/1 77/55/1 76/56/1
f 86/53/1 87/54/1 78/55/1 77/56/1
f 87/53/1 88/54/1 79/55/1 78/56/1
f 88/53/1 89/54/1 80/55/1 79/56/1
f 89/57/1 90/58/1 81/59/1 80/60/1
f 90/25/1 155/26/1 151/27/1 81/28/1
f 155/25/1 156/26/1 152/27/1 151/28/1
f 157/17/1 158/18/1 154/19/1 153/20/1
f 158/13/1 159/14/1 82/15/1 154/16/1
f 159/25/1 160/26/1 83/27/1 82/28/1
f 160/25/1 161/26/1 84/27/1 83/28/1
f 161/25/1 162/26/1 85/27/1 84/28/1
f 162/13/1 163/14/1 86/15/1 85/16/1
f 163/17/1 164/18/1 87/19/1 86/20/1
f 164/25/1 165/26/1 88/27/1 87/28/1
f 165/21/1 166/22/1 89/23/1 88/24/1
f 166/21/1 167/22/1 90/23/1 89/24/1
f 167/21/1 168/22/1 155/23/1 90/24/1
f 168/17/1 169/18/1 156/19/1 155/20/1

g mesh_0003
f 91/61/1 92/62/1 93/63/1 94/64/1
f 92/65/1 95/66/1 96/67/1 93/68/1
f 95/69/1 97/70/1 98/71/1 96/72/1
f 97/61/1 99/62/1 100/63/1 98/64/1
f 99/65/1 101/66/1 102/67/1 100/68/1
f 101/69/1 103/70/1 104/71/1 102/72/1
f 103/61/1 105/62/1 106/63/1 104/64/1
f 105/65/1 107/66/1 108/67/1 106/68/1
f 107/69/1 109/70/1 110/71/1 108/72/1
f 109/61/1 111/62/1 112/63/1 110/64/1
f 111/65/1 113/66/1 114/67/1 112/68/1
f 113/69/1 115/70/1 116/71/1 114/72/1
f 117/73/1 118/74/1 92/75/1 91/76/1
f 118/77/1 4/78/1 95/79/1 92/80/1
f 4/81/1 3/82/1 97/83/1 95/84/1
f 3/73/1 6/74/1 99/75/1 97/76/1
f 6/77/1 8/78/1 101/79/1 99/80/1
f 8/81/1 10/82/1 103/83/1 101/84/1
f 10/73/1 12/74/1 105/75/1 103/76/1
f 12/77/1 14/78/1 107/79/1 105/80/1
f 14/81/1 16/82/1 109/83/1 107/84/1
f 16/73/1 18/74/1 111/75/1 109/76/1
f 18/77/1 119/78/1 113/79/1 111/80/1
f 119/81/1 120/82/1 115/83/1 113/84/1
f 121/85/1 122/86/1 118/87/1 117/88/1
f 122/89/1 1/90/1 4/91/1 118/92/1
f 1/93/1 2/94/1 3/95/1 4/96/1
f 2/85/1 5/86/1 6/87/1 3/88/1
f 5/89/1 7/90/1 8/91/1 6/92/1
f 7/93/1 9/94/1 10/95/1 8/96/1
f 9/85/1 11/86/1 12/87/1 10/88/1
f 11/89/1 13/90/1 14/91/1 12/92/1
f 13/93/1 15/94/1 16/95/1 14/96/1
f 15/85/1 17/86/1 18/87/1 16/88/1
f 17/89/1 123/90/1 119/91/1 18/92/1
f 123/93/1 124/94/1 120/95/1 119/96/1
f 125/61/1 126/62/1 122/63/1 121/64/1
f 126/65/1 19/66/1 1/67/1 122/68/1
f 19/69/1 20/70/1 2/71/1 1/72/1
f 26/61/1 27/62/1 17/63/1 15/64/1
f 27/65/1 127/66/1 123/67/1 17/68/1
f 127/69/1 128/70/1 124/71/1 123/72/1
f 129/73/1 130/74/1 126/75/1 125/76/1
f 130/77/1 28/78/1 19/79/1 126/80/1
f 28/81/1 29/82/1 20/83/1 19/84/1
f 35/73/1 36/74/1 27/75/1 26/76/1
f 36/77/1 131/78/1 127/79/1 27/80/1
f 131/81/1 132/82/1 128/83/1 127/84/1
f 133/85/1 134/86/1 130/87/1 129/88/1
f 134/89/1 37/90/1 28/91/1 130/92/1
f 37/93/1 38/94/1 29/95/1 28/96/1
f 44/85/1 45/86/1 36/87/1 35/88/1
f 45/89/1 135/90/1 131/91/1 36/92/1
f 135/93/1 136/94/1 132/95/1 131/96/1
f 137/61/1 138/62/1 134/63/1 133/64/1
f 138/65/1 46/66/1 37/67/1 134/68/1
f 46/69/1 47/70/1 38/71/1 37/72/1
f 53/61/1 54/62/1 45/63/1 44/64/1
f 54/65/1 139/66/1 135/67/1 45/68/1
f 139/69/1 140/70/1 136/71/1 135/72/1
f 141/73/1 142/74/1 138/75/1 137/76/1
f 142/77/1 55/78/1 46/79/1 138/80/1
f 55/81/1 56/82/1 47/83/1 46/84/1
f 62/73/1 63/74/1 54/75/1 53/76/1
f 63/77/1 143/78/1 139/79/1 54/80/1
f 143/81/1 144/82/1 140/83/1 139/84/1
f 145/85/1 146/86/1 142/87/1 141/88/1
f 146/89/1 64/90/1 55/91/1 142/92/1
f 64/93/1 65/94/1 56/95/1 55/96/1
f 71/85/1 72/86/1 63/87/1 62/88/1
f 72/89/1 147/90/1 143/91/1 63/92/1
f 147/93/1 148/94/1 144/95/1 143/96/1
f 149/61/1 150/62/1 146/63/1 145/64/1
f 150/65/1 73/66/1 64/67/1 146/68/1
f 73/69/1 74/70/1 65/71/1 64/72/1
f 74/61/1 75/62/1 66/63/1 65/64/1
f 75/65/1 76/66/1 67/67/1 66/68/1
f 76/69/1 77/70/1 68/71/1 67/72/1
f 77/61/1 78/62/1 69/63/1 68/64/1
f 78/65/1 79/66/1 70/67/1 69/68/1
f 79/69/1 80/70/1 71/71/1 70/72/1
f 80/61/1 81/62/1 72/63/1 71/64/1
f 81/65/1 151/66/1 147/67/1 72/68/1
f 151/69/1 152/70/1 148/71/1 147/72/1
f 153/73/1 154/74/1 150/75/1 149/76/1
f 154/77/1 82/78/1 73/79/1 150/80/1
f 82/81/1 83/82/1 74/83/1 73/84/1
f 83/73/1 84/74/1 75/75/1 74/76/1
f 84/77/1 85/78/1 76/79/1 75/80/1
f 85/81/1 86/82/1 77/83/1 76/84/1
f 86/73/1 87/74/1 78/75/1 77/76/1
f 87/77/1 88/78/1 79/79/1 78/80/1
f 88/81/1 89/82/1 80/83/1 79/84/1
f 89/73/1 90/74/1 81/75/1 80/76/1
f 90/77/1 155/78/1 151/79/1 81/80/1
f 155/81/1 156/82/1 152/83/1 151/84/1
f 157/85/1 158/86/1 154/87/1 153/88/1
f 158/89/1 159/90/1 82/91/1 154/92/1
f 159/93/1 160/94/1 83/95/1 82/96/1
f 160/85/1 161/86/1 84/87/1 83/88/1
f 161/89/1 162/90/1 85/91/1 84/92/1
f 162/93/1 163/94/1 86/95/1 85/96/1
f 163/85/1 164/86/1 87/87/1 86/88/1
f 164/89/1 165/90/1 88/91/1 87/92/1
f 165/93/1 166/94/1 89/95/1 88/96/1
f 166/85/1 167/86/1 90/87/1 89/88/1
f 167/89/1 168/90/1 155/91/1 90/92/1
f 168/93/1 169/94/1 156/95/1 155/96/1

